<svg id="Layer_1" data-name="Layer 1" xmlns="http://www.w3.org/2000/svg" viewBox="0 0 163.19 96"><defs><style>.cls-1,.cls-3{fill:none;stroke:#2b2929;stroke-miterlimit:10;}.cls-1{stroke-width:4px;}.cls-2{fill:#2b2929;}</style></defs><title>code-icon</title><rect class="cls-1" x="15.96" y="2" width="131.28" height="81.66" rx="5.2"/><path class="cls-2" d="M257.18,330.84,246.57,339c-1.68,1.3-6.51,3.66-6.52,6.17s3.42,3,5.1,3.66L258,353.67c1.81.67,2.59-2.23.8-2.9l-8.58-3.2c-1.4-.52-2.84-1.16-4.28-1.6a2.84,2.84,0,0,0-2.15-.5c-1.19.18-1-.13.53-.94,2.07-2.18,5.09-3.94,7.48-5.78L259.3,333c1.52-1.18-.61-3.29-2.12-2.12Z" transform="translate(-191 -295)"/><path class="cls-2" d="M275.8,327.17q-6.21,14.46-11.89,29.13c-.7,1.81,2.2,2.59,2.89.8q5.54-14.31,11.59-28.41c.75-1.76-1.83-3.29-2.59-1.52Z" transform="translate(-191 -295)"/><path class="cls-2" d="M283.81,332.87l15.45,11.85.36-2.74a116.37,116.37,0,0,0-19.54,9.42A1.5,1.5,0,0,0,281.6,354a111.5,111.5,0,0,1,18.82-9.12,1.52,1.52,0,0,0,.35-2.74l-15.44-11.85c-1.53-1.18-3,1.43-1.52,2.59Z" transform="translate(-191 -295)"/><rect class="cls-1" x="2" y="83.66" width="159.19" height="10.34" rx="3.03"/><path class="cls-2" d="M215.66,304.93a1.5,1.5,0,0,0,0-3,1.5,1.5,0,0,0,0,3Z" transform="translate(-191 -295)"/><path class="cls-2" d="M220.47,304.93a1.5,1.5,0,0,0,0-3,1.5,1.5,0,0,0,0,3Z" transform="translate(-191 -295)"/><path class="cls-2" d="M225.28,304.93a1.5,1.5,0,0,0,0-3,1.5,1.5,0,0,0,0,3Z" transform="translate(-191 -295)"/><line class="cls-3" x1="16.99" y1="12.85" x2="146.2" y2="12.85"/><line class="cls-3" x1="75.39" y1="89.35" x2="87.8" y2="89.35"/></svg>