<svg id="Layer_1" data-name="Layer 1" xmlns="http://www.w3.org/2000/svg" viewBox="0 0 165.45 118.5"><defs><style>.cls-1{fill:#2b2929;}</style></defs><title>UXUI-icon</title><path class="cls-1" d="M1256.6,305.85c-1.42-2.69-.95-4.46,1.42-5.33a14.72,14.72,0,0,1,2.8-1c3.29-1,5.61-1.13,8.13,1.26,2.09,1.08,2.44,2.72,1,4.91a17,17,0,0,1-2.32,3.2c-1,1.17-2.06,2.25-3,3.43-3.34,4.1-5,8.92-2.46,13.81,1.34,2.57,5.23.3,3.88-2.27-3.66-7,8-12.79,9-19.41.81-5.41-3.87-9.53-8.93-10s-12.7,1.68-15,6.83c-2,4.53.76,8.58,5.39,9.15,2.87.35,2.85-4.15,0-4.5Z" transform="translate(-1109.75 -257.6)"/><path class="cls-1" d="M1264.59,336.32h.41a2.27,2.27,0,0,0,2.25-2.25,2.29,2.29,0,0,0-2.25-2.25h-.41a2.25,2.25,0,0,0,0,4.5Z" transform="translate(-1109.75 -257.6)"/><path class="cls-1" d="M1225.5,267.36a5.16,5.16,0,0,1,3.6-2.88,8.41,8.41,0,0,1,2.64-.35,12.52,12.52,0,0,1,4.87.93c2.77,1.11,4.69,2.43,2.31,5.87-.87,1.25-2.59,2-3.75,3-3.68,3-6,6.62-5,11.44.61,2.83,5,1.63,4.34-1.2-1.44-6.62,9.18-8.43,10.14-14.65.77-5.05-4.14-8.17-8.38-9.27-4.66-1.21-10.69-.68-13.91,3.38-2.72,3.43-1.17,7.71,3.12,8.26,2.86.38,2.83-4.13,0-4.5Z" transform="translate(-1109.75 -257.6)"/><path class="cls-1" d="M1232.13,294.86h.42a2.25,2.25,0,0,0,0-4.5h-.42a2.25,2.25,0,0,0,0,4.5Z" transform="translate(-1109.75 -257.6)"/><path class="cls-1" d="M1112.56,316a22.86,22.86,0,0,0,11.31-6.41l-3.76-2.19-3.79,14.68c-1.1,4.27-3.47,9.55-3.46,13.95,0,6.78,7.65,2.42,10-.26,1.9-2.17-1.27-5.36-3.19-3.18-.42.48-2,2.46-2.65,2.3.87.22,1.14-2.07,1.27-2.44.9-2.66,1.43-5.54,2.13-8.26l4-15.59a2.27,2.27,0,0,0-3.76-2.19,18.59,18.59,0,0,1-9.33,5.25c-2.81.68-1.62,5,1.2,4.34Z" transform="translate(-1109.75 -257.6)"/><path class="cls-1" d="M1122.09,298l0,.07.81-.81a1.89,1.89,0,0,1,2.5.6l.3,1.14-.23.89-.81.81a1.89,1.89,0,0,1-2.5-.6l-.31-1.14.06-.43a2.25,2.25,0,0,0,4.34,1.2,2.58,2.58,0,0,0-1.26-2.95,2.51,2.51,0,1,0-2.47,4.38,2.59,2.59,0,0,0,2,.28,2.87,2.87,0,0,0,1.55-1.17,2.26,2.26,0,0,0-.81-3.08,2.31,2.31,0,0,0-3.08.81Z" transform="translate(-1109.75 -257.6)"/><path class="cls-1" d="M1186.66,258.68c-12.07-2-26.07,5.78-33.06,15.53-7.32,10.21-3,23.46,6.31,30.72,10.21,8,24.67,9.45,36.52,4.46,5-2.08,9.9-5.37,12.33-10.34s1.51-11.38-.12-16.57c-3.88-12.42-14.11-22.78-27.19-24.84-2.83-.45-4,3.88-1.19,4.33,11.59,1.83,20.54,10.67,24,21.7,2.07,6.49,2.32,13.26-3.37,17.92-5.06,4.14-11.93,6.09-18.39,6.2-12.34.2-28-7.59-28.21-21.64-.25-13.29,19.1-25.12,31.13-23.14,2.83.47,4-3.86,1.2-4.33Z" transform="translate(-1109.75 -257.6)"/><path class="cls-1" d="M1164.21,305.1c-12.44,1.89-18.84,13.87-19.73,25.44-1.12,14.75,3.13,30.49,8.55,44.06,1.06,2.65,5.41,1.5,4.34-1.2-4.58-11.46-7.81-23.72-8.43-36.09-.59-11.62,3.07-25.84,16.46-27.87,2.86-.43,1.65-4.77-1.19-4.34Z" transform="translate(-1109.75 -257.6)"/><path class="cls-1" d="M1199.74,308.74c12.22,1.47,15.26,15.35,15,25.52a160,160,0,0,1-5.31,34.57c-.71,2.81,3.63,4,4.34,1.19,4.59-18.1,15.17-62.28-14-65.78-2.87-.35-2.85,4.15,0,4.5Z" transform="translate(-1109.75 -257.6)"/><path class="cls-1" d="M1153.41,283.1a71.36,71.36,0,0,0,40.35-15.47c2.27-1.8-.93-5-3.18-3.18a66.2,66.2,0,0,1-37.17,14.15c-2.88.18-2.9,4.68,0,4.5Z" transform="translate(-1109.75 -257.6)"/></svg>